HIERARCHY
ROOT Hips
{
	OFFSET 0.0000 0.0000 0.0000
	CHANNELS 6 Xposition Yposition Zposition Zrotation Xrotation Yrotation
	JOINT Ab
	{
		OFFSET -0.0000 8.0846 -0.0000
		CHANNELS 3 Zrotation Xrotation Yrotation
		JOINT Chest
		{
			OFFSET -0.0000 25.0068 -0.0000
			CHANNELS 3 Zrotation Xrotation Yrotation
			JOINT Neck
			{
				OFFSET -0.0000 25.0068 0.0000
				CHANNELS 3 Zrotation Xrotation Yrotation
				JOINT Head
				{
					OFFSET -0.0000 10.7556 0.0000
					CHANNELS 3 Zrotation Xrotation Yrotation
					End Site
					{
						OFFSET -0.0000 16.6222 0.0000
					}
				}
			}
			JOINT LeftCollar
			{
				OFFSET -0.0000 25.0068 0.0000
				CHANNELS 3 Zrotation Xrotation Yrotation
				JOINT LeftShoulder
				{
					OFFSET 19.5556 -0.0000 0.0000
					CHANNELS 3 Zrotation Xrotation Yrotation
					JOINT LeftElbow
					{
						OFFSET 27.1828 0.0000 0.0000
						CHANNELS 3 Zrotation Xrotation Yrotation
						JOINT LeftWrist
						{
							OFFSET 23.3157 0.0000 0.0000
							CHANNELS 3 Zrotation Xrotation Yrotation
							End Site
							{
								OFFSET 0.0000 -14.6667 0.0000
							}
						}
					}
				}
			}
			JOINT RightCollar
			{
				OFFSET -0.0000 25.0068 0.0000
				CHANNELS 3 Zrotation Xrotation Yrotation
				JOINT RightShoulder
				{
					OFFSET -19.5556 0.0000 0.0000
					CHANNELS 3 Zrotation Xrotation Yrotation
					JOINT RightElbow
					{
						OFFSET -27.1828 0.0000 0.0000
						CHANNELS 3 Zrotation Xrotation Yrotation
						JOINT RightWrist
						{
							OFFSET -23.3157 0.0000 0.0000
							CHANNELS 3 Zrotation Xrotation Yrotation
							End Site
							{
								OFFSET -0.0000 -14.6667 0.0000
							}
						}
					}
				}
			}
		}
	}
	JOINT LeftHip
	{
		OFFSET 11.7333 0.0000 0.0000
		CHANNELS 3 Zrotation Xrotation Yrotation
		JOINT LeftKnee
		{
			OFFSET -0.0000 -40.8688 0.0000
			CHANNELS 3 Zrotation Xrotation Yrotation
			JOINT LeftAnkle
			{
				OFFSET -0.0000 -44.4337 0.0000
				CHANNELS 3 Zrotation Xrotation Yrotation
				End Site
				{
					OFFSET -0.0000 -4.8889 16.6222
				}
			}
		}
	}
	JOINT RightHip
	{
		OFFSET -11.7333 0.0000 0.0000
		CHANNELS 3 Zrotation Xrotation Yrotation
		JOINT RightKnee
		{
			OFFSET -0.0000 -40.8688 0.0000
			CHANNELS 3 Zrotation Xrotation Yrotation
			JOINT RightAnkle
			{
				OFFSET -0.0000 -44.4337 0.0000
				CHANNELS 3 Zrotation Xrotation Yrotation
				End Site
				{
					OFFSET -0.0000 -4.8889 16.6222
				}
			}
		}
	}
}
MOTION
Frames: 23
Frame Time: 0.010000
-1.0712 88.6972 187.9181 2.1663 359.6222 176.4393 1.3498 0.1533 358.6427 359.1310 11.1917 358.7303 2.7690 342.9077 2.2132 1.2043 4.8819 1.7440 338.2543 358.3622 8.5441 300.4452 29.8739 356.3190 17.6907 353.8488 321.9945 82.1835 0.2210 340.5762 22.8220 358.9747 354.8722 54.9622 48.0130 12.9399 336.7028 353.1209 32.4975 275.5570 351.7905 20.3249 2.5235 357.5892 357.2872 359.1952 11.4360 358.2501 356.1628 350.7026 21.8374 0.6553 351.8903 359.6194 358.7077 20.2075 6.4870 357.7044 344.1288 337.7992 
-1.0950 88.6978 187.8932 2.1647 359.6445 176.4040 1.3481 0.2438 358.6625 359.1193 11.1871 358.7512 2.7688 342.8859 2.2299 1.1909 4.8884 1.7635 338.2525 358.3274 8.6210 300.4497 30.0000 356.2939 17.7615 353.8402 322.0229 82.3588 0.1501 340.7949 22.8130 358.9656 354.9038 54.7837 48.1195 13.1309 336.6296 353.0619 32.6317 275.6375 351.5942 20.1077 2.5106 357.6065 357.4019 359.1986 11.4909 358.1100 355.8825 350.5836 21.8244 0.6385 351.9212 359.6675 358.7106 20.2121 6.5052 357.4210 344.1594 337.7201 
-1.1235 88.6990 187.8759 2.1536 359.6230 176.3898 1.3460 0.2988 358.6702 359.0923 11.1691 358.7634 2.7757 342.8579 2.2128 1.1494 4.9275 1.7433 338.2469 358.3556 8.6444 300.4932 30.0514 356.2779 17.7079 353.8719 322.0639 82.5110 0.0444 340.9245 22.8224 358.9784 354.8738 54.4894 48.3252 13.4527 336.6718 353.0499 32.8077 275.4623 351.7840 20.2121 2.4939 357.5239 357.2884 359.1447 11.6388 358.2002 356.2819 350.5582 21.9270 0.6027 351.9095 359.7019 358.7297 20.2140 6.5069 357.4328 344.1404 337.7081 
-1.1482 88.7019 187.8548 2.1515 359.6086 176.3731 1.3466 0.3511 358.6887 359.0699 11.1865 358.7842 2.7592 342.7868 2.2094 1.1753 4.9711 1.7393 338.2464 358.3221 8.6717 300.5257 30.1367 356.2703 17.8506 353.7714 321.9636 82.0759 0.1429 340.8363 22.8233 358.9523 354.8569 54.2703 48.5081 13.7197 336.5343 352.9683 32.9563 275.5373 351.8102 20.0921 2.4846 357.4988 357.2661 359.1171 11.6937 358.1847 356.2950 350.4921 21.9720 0.5846 351.9136 359.7375 358.7400 20.1983 6.4668 357.4495 344.1280 337.7325 
-1.1772 88.7030 187.8313 2.1446 359.5883 176.3576 1.2851 0.3619 358.7111 359.1930 11.3106 358.7959 2.5970 342.6195 2.1721 1.2380 5.0398 1.7216 338.2521 358.3190 8.6921 300.4841 30.1662 356.2057 17.8398 353.7935 321.9574 82.0599 0.0945 340.8596 22.7015 358.9626 354.7988 53.9949 48.6517 14.1254 336.4953 352.9104 33.1124 275.5961 351.7920 20.0642 2.4643 357.4715 357.2605 359.0971 11.7440 358.1818 356.3305 350.4564 22.0076 0.5551 351.9163 359.7689 358.7604 20.1791 6.4204 357.4459 344.0989 337.7511 
-1.2095 88.7034 187.8033 2.1433 359.5741 176.3429 1.2436 0.3411 358.6093 359.3803 11.3817 358.6758 2.2143 342.7297 2.1546 1.4700 4.9185 1.7592 338.1510 358.3246 8.6870 300.4133 30.0648 356.2410 17.8428 353.8348 321.9723 82.0280 0.0624 340.8856 22.5997 359.0000 354.9059 53.6356 48.8106 14.4844 336.5180 352.9221 33.1549 275.4874 351.7696 19.9867 2.4493 357.4658 357.2575 359.0785 11.7684 358.1647 356.3506 350.4123 22.0353 0.5260 351.9290 359.8138 358.7755 20.1627 6.4332 357.4588 344.0914 337.7382 
-1.2427 88.7052 187.7834 2.1412 359.5263 176.3416 1.2272 0.3714 358.6369 359.3830 11.3962 358.7047 2.2403 342.6347 2.2130 1.4095 4.9962 1.8117 338.1361 358.2882 8.8041 300.4518 30.2062 356.1760 17.9818 353.7670 321.9683 81.9454 0.0568 341.0341 22.5788 359.0018 354.9604 53.3984 48.9868 14.7706 336.4225 352.8517 33.3151 275.3784 351.7041 20.0158 2.4334 357.4080 357.2512 359.0638 11.8153 358.1574 356.4186 350.3732 22.0636 0.4973 351.9090 359.8563 358.8028 20.1368 6.3792 357.4763 344.0885 337.7422 
-1.2762 88.7069 187.7579 2.1365 359.4872 176.3272 1.1161 0.5073 358.7492 359.5010 11.2305 358.8045 2.2848 342.6662 2.1502 1.2778 5.0037 1.7401 338.0788 358.3018 8.7277 300.4435 30.0899 356.3006 17.8114 353.8439 321.9526 82.0166 0.0107 340.8560 22.5293 358.9819 354.8533 53.3129 49.2701 14.9551 336.2043 352.7536 33.2241 275.1767 351.0639 20.2034 2.4179 357.3695 357.2329 359.0371 11.8557 358.1447 356.0658 350.2552 22.0335 0.4655 351.8990 359.8876 358.8210 20.1103 6.3515 357.4425 344.0748 337.7576 
-1.3132 88.7077 187.7201 2.1439 359.4672 176.3012 1.1209 0.5597 358.7710 359.4987 11.2318 358.8269 2.2550 342.6671 2.1039 1.3109 4.9658 1.7004 338.0868 358.3031 8.6708 300.4108 30.1733 356.3181 17.8743 353.7956 321.9709 82.0404 359.9767 340.9420 22.5341 358.9570 354.7337 53.0107 49.4292 15.3061 336.0969 352.7263 33.3343 275.4128 350.7902 20.1172 2.4122 357.3700 357.2030 359.0061 11.8752 358.1380 356.1463 350.2046 22.1006 0.4475 351.9263 359.9497 358.8379 20.0657 6.3027 357.4844 344.0603 337.7936 
-1.3547 88.7079 187.6926 2.1352 359.3850 176.3318 1.0849 0.5093 358.7790 359.5707 11.3627 358.8273 2.1817 342.5261 2.0890 1.3278 4.9816 1.6961 338.1001 358.3084 8.6652 300.3835 30.2633 356.2420 17.9235 353.7635 321.9788 82.0054 359.9535 340.9966 22.4574 358.9278 354.6585 52.6996 49.5007 15.6875 336.0015 352.6549 33.6299 275.5915 350.8616 20.2070 2.3873 357.2618 357.1176 358.9757 11.9509 358.1616 356.5076 350.2107 22.1931 0.4055 351.8931 359.9489 358.8560 20.0260 6.4540 357.4796 344.0641 337.6215 
-1.3982 88.7102 187.6593 2.1303 359.3321 176.3121 1.0982 0.5610 358.7802 359.5483 11.3165 358.8317 2.1553 342.5408 2.1089 1.3421 4.9626 1.7201 338.0939 358.3106 8.7372 300.3920 30.3754 356.1983 17.9877 353.7480 322.0571 81.9624 359.8904 341.0792 22.4604 358.9436 354.6570 52.4838 49.5933 15.9287 335.9799 352.6136 33.7951 275.6695 350.8082 20.1909 2.3634 357.2142 357.0852 358.9483 12.0060 358.1656 356.2559 350.1152 22.1863 0.3686 351.8768 359.9905 358.8753 19.9926 6.4134 357.4874 344.0416 337.6451 
-1.4464 88.7132 187.6202 2.1203 359.2791 176.2862 1.0878 0.5870 358.7982 359.5168 11.3083 358.8521 2.2349 342.4880 2.1521 1.2349 5.0546 1.7539 338.1061 358.3133 8.7249 300.3596 30.2334 356.2397 17.9308 353.7689 322.0257 81.9290 359.8814 341.0032 22.4651 358.9484 354.6907 52.3165 49.7151 16.1426 335.8631 352.5390 33.9631 275.5927 350.7936 20.1938 2.3264 357.1756 357.1022 358.9404 12.0393 358.1343 356.2606 350.0420 22.2128 0.3261 351.8690 0.0505 358.8984 19.9266 6.1681 357.6064 344.0201 337.8708 
-1.5010 88.7139 187.5886 2.1018 359.1926 176.2795 1.0911 0.6042 358.7940 359.4821 11.2661 358.8523 2.2652 342.5000 2.1761 1.1819 5.0521 1.7753 338.1245 358.3523 8.6522 300.2808 29.8988 356.3425 17.7576 353.8513 321.9113 81.8871 359.9188 340.8014 22.4729 358.9325 354.7029 52.1373 49.8163 16.3440 335.8178 352.4735 34.2021 275.2123 351.1322 20.1650 2.2796 357.0674 357.0463 358.9143 12.1236 358.1529 356.3191 349.9710 22.2663 0.2685 351.8162 0.0628 358.9145 19.8963 6.1430 357.6117 344.0161 337.8970 
-1.5571 88.7148 187.5387 2.0956 359.1624 176.2509 1.0848 0.6500 358.8106 359.4824 11.2830 358.8693 2.2162 342.4404 2.1911 1.1997 5.0922 1.7972 338.1213 358.3255 8.6617 300.2408 29.8188 356.3714 17.7636 353.8407 321.8325 81.8188 359.9341 340.7497 22.4739 358.9598 354.6713 51.7744 49.8855 16.7271 335.8420 352.4488 34.3453 275.4318 350.8080 20.1364 2.2367 357.0442 357.0099 358.9005 12.1838 358.1796 356.3476 349.8656 22.2905 0.2166 351.8384 0.0955 358.9381 19.8456 6.1239 357.8602 343.9722 337.9727 
-1.6316 88.7124 187.4971 2.0740 359.1025 176.2470 1.0896 0.7009 358.8211 359.4407 11.2435 358.8850 2.2434 342.3948 2.1815 1.1198 5.1504 1.7815 338.1201 358.3222 8.6773 300.2421 29.9300 356.3791 17.7949 353.8253 321.9104 81.7420 359.8659 340.8069 22.4693 358.9384 354.6341 51.5096 50.0622 17.0650 335.6781 352.3700 34.4316 275.4898 350.8508 20.0003 2.1564 356.9721 356.9627 358.9080 12.2589 358.1722 356.4123 349.8004 22.3435 0.1202 351.8264 0.0806 358.9860 19.7952 6.0781 357.7108 343.9805 337.9780 
-1.7014 88.7109 187.4501 2.0539 359.0327 176.2268 1.0982 0.7278 358.8244 359.4063 11.2149 358.8900 2.2218 342.3664 2.1949 1.1028 5.2202 1.8001 338.1143 358.3253 8.7075 300.2220 30.0213 356.3907 17.8633 353.7927 321.9644 81.6288 359.8188 340.8572 22.4783 358.9082 354.5530 51.0409 50.3515 17.6116 335.5828 352.3402 34.4028 275.4760 350.8324 19.8382 2.0993 356.8990 356.9206 358.8836 12.3414 358.1309 356.4683 349.7206 22.4305 0.0398 351.8010 0.0366 358.9975 19.7524 6.1267 357.7660 343.9565 338.0049 
-1.7668 88.7119 187.3944 2.0522 358.9799 176.2174 1.0859 0.7593 358.8476 359.3894 11.2162 358.9168 2.3351 342.3347 2.2323 0.9762 5.2334 1.8245 338.1256 358.2991 8.6940 300.1705 29.9568 356.4391 17.8718 353.7880 321.9255 81.5878 359.8177 340.8350 22.4555 358.9343 354.6034 51.0872 50.4170 17.6986 335.3945 352.2390 34.4791 275.5337 350.7988 19.8108 2.0590 356.8461 356.8774 358.8616 12.4124 358.1360 356.5801 349.6591 22.4918 359.9841 351.8199 0.0556 359.0273 19.7040 6.0087 357.9039 343.8909 338.1316 
-1.8301 88.7133 187.3382 2.0616 358.9112 176.2128 1.0781 0.7824 358.8577 359.3795 11.2046 358.9269 2.4424 342.2916 2.2560 0.8378 5.2841 1.8358 338.1300 358.3223 8.6827 300.1467 29.9805 356.4719 17.8669 353.8026 321.9676 81.5777 359.7766 340.8712 22.4504 358.9395 354.6094 50.9710 50.5137 17.8970 335.1896 352.1537 34.6010 275.6416 350.8582 19.7683 2.0390 356.7769 356.8558 358.8287 12.4952 358.1307 356.6034 349.5552 22.5183 359.9430 351.8291 0.0792 359.1173 19.7211 5.4437 358.1559 343.6251 338.5816 
-1.9226 88.7087 187.2816 2.0301 358.8440 176.1584 1.0905 0.8156 358.8694 359.3252 11.1970 358.9436 2.4042 342.2501 2.2711 0.8692 5.2900 1.8566 338.1296 358.2973 8.7079 300.1151 29.9872 356.5184 17.9273 353.7655 321.8498 81.5270 359.8583 340.9865 22.4326 358.9475 354.6172 50.6910 50.6513 18.2548 335.0890 352.1244 34.6419 275.6379 350.8033 19.6486 1.9438 356.7141 356.8537 358.8228 12.5745 358.1263 356.7592 349.4835 22.5968 359.8358 351.8104 0.0851 359.1438 19.6695 5.4354 358.2543 343.5989 338.6467 
-2.0047 88.7091 187.2246 2.0099 358.7447 176.1266 1.0996 0.8289 358.8737 359.2696 11.1571 358.9530 2.3547 342.2639 2.2785 0.9506 5.2459 1.8674 338.1310 358.3097 8.7227 300.0993 29.9146 356.5655 17.8272 353.7917 321.8171 81.5941 359.8370 340.9490 22.4845 358.9075 354.4518 49.8105 50.9842 19.1932 335.1868 352.1877 34.4774 275.4073 350.8176 19.3649 1.8734 356.6236 356.8113 358.8046 12.6380 358.1753 356.8178 349.3920 22.6280 359.7536 351.7740 0.1374 359.1803 19.6092 5.3873 358.2986 343.5902 338.6994 
-2.0891 88.7082 187.1609 1.9976 358.6714 176.0700 1.0994 0.8825 358.8867 359.2371 11.0970 358.9707 2.3195 342.2395 2.2906 0.9765 5.2787 1.8833 338.1253 358.3023 8.7456 300.0638 29.8491 356.6286 17.8048 353.7964 321.7517 81.5604 359.8126 340.9140 22.4947 358.9033 354.4436 49.5513 51.0367 19.5154 335.2465 352.2177 34.4878 275.3383 350.7138 19.3699 1.8112 356.5645 356.8114 358.7801 12.7103 358.2126 356.9818 349.3288 22.7108 359.6808 351.7701 0.2118 359.2136 19.5356 5.3468 358.3479 343.5839 338.7096 
-2.1349 88.7185 187.0817 2.0332 358.6673 175.9488 1.0387 0.9789 358.9557 359.2752 11.0858 359.0374 2.3431 342.2114 2.3199 0.9788 5.3059 1.9075 338.1297 358.2908 8.8230 300.0623 30.0225 356.6272 17.8829 353.7502 321.8216 81.6982 359.6858 341.0749 22.5429 358.9093 354.4329 49.3634 50.7741 19.7621 335.4725 352.3053 34.6997 275.3891 350.8005 19.6133 1.8482 356.6075 356.9692 358.7333 12.7539 358.2995 357.0600 349.2433 22.6040 359.7216 351.8602 0.4424 359.2055 19.4228 5.2002 358.4518 343.5718 338.7703 
-2.2288 88.7183 187.0204 2.0198 358.5508 175.9082 1.0277 0.9860 358.9711 359.2571 11.0554 359.0523 2.3510 342.1221 2.3003 0.9225 5.4090 1.8836 338.1366 358.3045 8.7743 300.0161 29.9751 356.6788 17.8581 353.7711 321.8317 81.6992 359.6166 341.0275 22.5330 358.8853 354.4025 49.1580 50.8822 20.0338 335.3427 352.1992 34.7197 275.5436 350.7424 19.5527 1.7770 356.4551 357.1470 358.7548 12.9190 358.0996 357.2412 349.1127 22.6771 359.6479 351.8134 0.5132 359.2284 19.3496 5.1507 358.5961 343.5304 338.8178 
